<?xml version="1.0" ?><!DOCTYPE svg  PUBLIC '-//W3C//DTD SVG 1.1//EN'  'http://www.w3.org/Graphics/SVG/1.1/DTD/svg11.dtd'><svg enable-background="new 0 0 72 72" id="Layer_1" version="1.1" viewBox="0 0 72 72" xml:space="preserve" xmlns="http://www.w3.org/2000/svg" xmlns:xlink="http://www.w3.org/1999/xlink"><g><path d="M36,0.5C21.8,0.5,10.3,12,10.3,26.2c0,12,18.4,37.1,24,44.5c0.8,1.1,2.4,1.1,3.2,0c5.6-7.4,24-32.5,24-44.5   C61.7,12,50.2,0.5,36,0.5z M36,46.1c-11,0-19.8-8.9-19.8-19.8c0-11,8.9-19.8,19.8-19.8c11,0,19.8,8.9,19.8,19.8   C55.8,37.2,47,46.1,36,46.1z"/><path d="M41.8,15.5c-1.8,0-3.5,0.6-4.9,1.7c-0.5,0.4-1.3,0.4-1.9,0c-1.3-1.1-3-1.7-4.9-1.7c-4.4,0-7.9,3.5-7.9,7.9   c0,4.8,6.4,12.1,13,16.6c0.5,0.3,1.2,0.4,1.7,0c7.1-4.6,12.7-12,12.7-16.6C49.7,19,46.2,15.5,41.8,15.5z"/></g></svg>